<?xml version="1.0" encoding="UTF-8"?>
<svg id="Layer_1" data-name="Layer 1" xmlns="http://www.w3.org/2000/svg" viewBox="0 0 1080 361.55">
  <defs>
    <style>
      .cls-1 {
        fill: #393a9f;
      }

      .cls-2 {
        fill: #c4f49f;
      }

      .cls-3 {
        fill: #83a7ff;
      }
    </style>
  </defs>
  <g>
    <path class="cls-1" d="M363.47,233.81h27.11c0,7.86,5.01,13.96,14.77,13.96,6.91,0,11.93-3.12,11.93-9.08,0-7.46-8.27-10.44-18.84-15.18-16.81-7.32-32.66-14.78-32.66-33.48s16.67-30.49,37.54-30.49c22.36,0,36.73,14.23,36.73,35.1h-25.75c0-7.05-4.34-11.39-10.98-11.39-6.1,0-10.44,3.66-10.44,8.27,0,5.97,6.91,7.86,21.96,13.83,15.99,6.23,29.95,13.82,29.95,32.66,0,20.73-16.26,32.93-38.9,32.93-25.21,0-42.42-15.31-42.42-37.13Z"/>
    <path class="cls-1" d="M462.14,205.07h-15.99v-23.72h15.99v-20.33h26.29v20.33h15.99v23.72h-15.99v64.38h-26.29v-64.38Z"/>
    <path class="cls-1" d="M505.77,225.54c0-27.24,18.97-45.68,46.22-45.68,29.82,0,48.93,22.91,45.54,52.45h-66.41c1.76,10.16,10.57,16.54,20.6,16.54,7.72,0,14.64-3.66,18.03-10.03h26.29c-6.1,19.79-23.04,32.12-45.13,32.12-26.43,0-45.13-18.43-45.13-45.4ZM571.37,215.91c-2.98-8.27-10.03-13.55-19.38-13.55s-16.54,5.29-19.65,13.69l39.03-.13Z"/>
    <path class="cls-1" d="M607.42,161.02h26.43v108.43h-26.43v-108.43Z"/>
    <path class="cls-1" d="M648.76,161.02h26.43v108.43h-26.43v-108.43Z"/>
    <path class="cls-1" d="M684.67,225.27c0-27.1,18.97-45.54,46.22-45.54s46.22,18.43,46.22,45.54-18.98,45.67-46.22,45.67-46.22-18.43-46.22-45.67ZM730.89,246.55c11.79,0,20.06-8.54,20.06-21.28s-8.27-21.01-20.06-21.01-20.06,8.54-20.06,21.01,8.27,21.28,20.06,21.28Z"/>
    <path class="cls-1" d="M786.59,161.02h49.47c22.36,0,37.95,14.5,37.95,35.24,0,22.5-15.59,38.22-37.95,38.22h-23.04v34.97h-26.43v-108.43ZM834.57,210.76c7.72,0,13.01-5.28,13.01-13.01s-5.29-13.01-13.01-13.01h-21.55v26.02h21.55Z"/>
    <path class="cls-1" d="M873.87,225.27c0-26.97,17.89-45.4,40.93-45.4,10.84,0,19.79,4.07,26.16,10.98v-9.49h25.07v88.1h-25.07v-9.62c-6.37,7.05-15.32,11.11-26.16,11.11-23.04,0-40.93-18.57-40.93-45.67ZM919.54,246.27c11.52,0,19.79-8.4,19.79-20.87s-8.27-20.73-19.79-20.73-19.79,8.27-19.79,20.73,8.13,20.87,19.79,20.87Z"/>
    <path class="cls-1" d="M1001.81,269.45l-34.42-88.1h26.83l20.74,53.81,20.87-53.81h26.57l-44.45,115.21h-26.97l10.84-27.11Z"/>
  </g>
  <path class="cls-3" d="M276.41,204.23l41.32-34.48-34.45-66.15-134.82,18.84c-15.84-32.22-40.36-59.48-63.63-86.56-1.16-1.35-4.58-5.38-7.87-8.88l-40.3,56.57c19.15,22.09,46.43,48.26,46.84,70.07.6,31.78-43.58,52.49-65.9,75.08l42.22,50.56c31.99-26.73,70.14-49.23,86.72-88.98l62.09-8.29c-2.24,7.44-6.9,14.04-9.1,21.58-16.64,57.24,22.53,107.13,60.43,146.95l51.57-44.05c-26.5-30.87-67.99-65.91-35.13-102.25Z"/>
  <circle class="cls-2" cx="185.05" cy="56.41" r="45.39"/>
</svg>