<?xml version="1.0" encoding="UTF-8"?>
<svg id="Layer_1" data-name="Layer 1" xmlns="http://www.w3.org/2000/svg" viewBox="0 0 747.68 725.11">
  <path d="M576.59,406.29l77.05-64.29-64.22-123.35-251.38,35.12c-29.53-60.07-75.25-110.9-118.64-161.4-2.16-2.52-8.55-10.03-14.67-16.56l-75.13,105.47c35.71,41.19,86.56,89.97,87.33,130.65,1.12,59.26-81.25,97.87-122.88,139.99l78.73,94.28c59.64-49.83,130.77-91.79,161.69-165.92l115.77-15.46c-4.17,13.88-12.87,26.18-16.96,40.24-31.03,106.72,42.01,199.75,112.67,273.99l96.15-82.13c-49.41-57.55-126.77-122.89-65.5-190.66Z"/>
  <circle cx="406.24" cy="130.66" r="84.63"/>
</svg>