<svg width="40" height="40" viewBox="0 0 40 40" fill="none" xmlns="http://www.w3.org/2000/svg">
<path d="M29.1698 23.4596L33.2919 20.0201L29.8562 13.4211L16.4077 15.2999C14.8279 12.0863 12.3819 9.36693 10.0606 6.66524C9.94501 6.53042 9.60316 6.12864 9.27574 5.7793L5.25638 11.4218C7.16682 13.6254 9.88723 16.2351 9.92843 18.4114C9.98835 21.5818 5.58165 23.6474 3.35449 25.9007L7.56645 30.9446C10.7571 28.2788 14.5625 26.034 16.2167 22.0681L22.4102 21.241C22.1871 21.9836 21.7217 22.6416 21.5029 23.3938C19.8428 29.1032 23.7504 34.0802 27.5306 38.0519L32.6745 33.6581C30.0311 30.5792 25.8925 27.0836 29.1703 23.458L29.1698 23.4596Z" fill="#83A7FF"/>
<path d="M20.0562 13.2408C22.5567 13.2408 24.5838 11.2137 24.5838 8.71315C24.5838 6.21262 22.5567 4.18555 20.0562 4.18555C17.5556 4.18555 15.5286 6.21262 15.5286 8.71315C15.5286 11.2137 17.5556 13.2408 20.0562 13.2408Z" fill="#C4F49F"/>
</svg>
