<?xml version="1.0" encoding="UTF-8"?>
<svg id="Layer_1" data-name="Layer 1" xmlns="http://www.w3.org/2000/svg" viewBox="0 0 747.68 725.11">
  <path d="M431.44,273.21l-68.07,67.91c63.85,37.22,137.91,104.76,83.32,176.85-60.95,80.48-187.22,17.33-163.61-78.86l-101.13-22.26c-20.38,92.92,30.79,192.04,119.73,226.49,3.14,1.21,6.27,2.32,9.41,3.37v63.36h52.04v-53.05c7.21.45,14.35.47,21.42.12v52.93h52.04v-62.86c74.93-25.56,130.98-96.9,133.51-186.88,2.61-92.89-58.26-141.93-138.66-187.13Z"/>
  <path d="M316.23,449.77l68.07-67.91c-63.85-37.22-137.91-104.76-83.32-176.85,60.95-80.48,187.22-17.33,163.61,78.86l101.13,22.26c20.38-92.92-30.79-192.04-119.73-226.49-3.14-1.21-6.27-2.32-9.41-3.37V15.03h-52.04v50.92c-7.21-.45-14.35-.47-21.42-.12V15.03h-52.04v60.73c-74.93,25.56-130.98,96.9-133.51,186.88-2.61,92.89,58.26,141.93,138.66,187.13Z"/>
</svg>