<?xml version="1.0" encoding="UTF-8"?>
<svg id="Layer_1" data-name="Layer 1" xmlns="http://www.w3.org/2000/svg" xmlns:xlink="http://www.w3.org/1999/xlink" viewBox="0 0 1080 361.55">
  <defs>
    <style>
      .cls-1 {
        fill: url(#linear-gradient-2);
      }

      .cls-2 {
        fill: #220548;
      }

      .cls-3 {
        fill: url(#linear-gradient);
      }
    </style>
    <linearGradient id="linear-gradient" x1="47.07" y1="227.14" x2="194.66" y2="227.14" gradientUnits="userSpaceOnUse">
      <stop offset="0" stop-color="#7956da"/>
      <stop offset=".66" stop-color="#2e2077"/>
      <stop offset=".99" stop-color="#0c084a"/>
    </linearGradient>
    <linearGradient id="linear-gradient-2" x1="47.07" y1="129.7" x2="194.66" y2="129.7" xlink:href="#linear-gradient"/>
  </defs>
  <g>
    <path class="cls-2" d="M217.16,233.28v-42.44h-15.19v-34.4h16.53l7.37-23.68h33.28v23.68h30.38v34.4h-30.38v36.19c0,6.92,2.46,8.71,12.06,8.71h18.32v35.07c-5.81,1.34-16.31,2.68-26.81,2.68-31.05,0-45.57-12.51-45.57-40.21Z"/>
    <path class="cls-2" d="M295.79,214.96c0-37.97,21.44-60.76,59.64-60.76s55.62,21.67,55.62,52.27c0,6.25-1.12,13.18-1.79,16.98h-74.38c.67,12.29,4.47,15.19,19.88,15.19,10.05,0,13.4-2.01,13.4-7.15v-.45h41.55v2.68c0,23.23-21.44,39.76-55.62,39.76-37.3,0-58.3-21.89-58.3-58.52ZM334.88,200.67h36.19c-.22-7.37-4.02-13.4-17.87-13.4-12.96,0-17.65,4.02-18.32,13.4Z"/>
    <path class="cls-2" d="M420.88,271.25V121.59h41.77v149.66h-41.77Z"/>
    <path class="cls-2" d="M476.5,271.25V121.59h41.77v149.66h-41.77Z"/>
    <path class="cls-2" d="M528.1,213.85c0-37.3,21.89-59.64,59.86-59.64s59.86,22.34,59.86,59.64-21.89,59.64-59.86,59.64-59.86-22.56-59.86-59.64ZM606.06,213.85c0-18.32-4.02-23.23-18.09-23.23s-18.09,4.91-18.09,23.23,4.02,23.23,18.09,23.23,18.09-4.91,18.09-23.23Z"/>
    <path class="cls-2" d="M660.11,271.25V121.59h70.81c35.74,0,58.75,20.77,58.75,55.17s-23.01,54.95-58.75,54.95h-28.81v39.54h-41.99ZM702.11,159.34v34.85h27.25c14.3,0,18.32-2.68,18.32-17.42s-4.02-17.42-18.32-17.42h-27.25Z"/>
    <path class="cls-2" d="M791.91,241.99c0-17.87,11.62-28.59,35.96-32.61l36.63-5.81v-4.02c0-7.15-2.46-9.61-14.74-9.61s-15.19,2.23-15.19,9.16v3.57h-39.98v-2.68c0-28.37,22.34-45.79,56.74-45.79s53.16,15.86,53.16,48.25v68.8h-39.31v-13.85h-2.01c-4.91,7.15-14.97,16.08-36.41,16.08-19.66,0-34.85-10.5-34.85-31.5ZM840.6,243.11c16.31,0,23.23-4.24,23.9-14.97l-27.92,4.69c-4.47.67-6.25,2.23-6.25,5.36,0,4.02,2.46,4.91,10.28,4.91Z"/>
    <path class="cls-2" d="M910.3,306.1v-34.85h23.45c6.92,0,9.38-.89,11.39-5.14l-45.79-109.68h46.69l15.19,47.13,5.14,22.11h2.9l4.69-22.11,12.73-47.13h46.24l-45.12,117.72c-10.05,26.36-28.59,35.07-50.93,35.07-9.83,0-21.22-1.79-26.58-3.13Z"/>
  </g>
  <g>
    <path class="cls-3" d="M142.52,145.04l-25.58,25.52c24,13.99,51.83,39.37,31.31,66.47-22.91,30.25-70.37,6.51-61.49-29.64l-38.01-8.37c-7.66,34.92,11.57,72.18,45,85.13,1.18.46,2.36.87,3.54,1.27v23.81h19.56v-19.94c2.71.17,5.39.18,8.05.05v19.89h19.56v-23.63c28.16-9.61,49.23-36.42,50.18-70.24.98-34.91-21.9-53.34-52.11-70.33Z"/>
    <path class="cls-1" d="M99.21,211.4l25.58-25.52c-24-13.99-51.83-39.37-31.31-66.47,22.91-30.25,70.37-6.51,61.49,29.64l38.01,8.37c7.66-34.92-11.57-72.18-45-85.13-1.18-.46-2.36-.87-3.54-1.27v-23.01h-19.56v19.14c-2.71-.17-5.39-.18-8.05-.05v-19.09h-19.56v22.82c-28.16,9.61-49.23,36.42-50.18,70.24-.98,34.91,21.9,53.34,52.11,70.33Z"/>
  </g>
</svg>