<?xml version="1.0" encoding="UTF-8"?>
<svg id="Layer_1" data-name="Layer 1" xmlns="http://www.w3.org/2000/svg" viewBox="0 0 1080 361.55">
  <g>
    <path d="M199.42,220.94v-44.44h-15.9v-36.02h17.31l7.72-24.79h34.85v24.79h31.81v36.02h-31.81v37.89c0,7.25,2.57,9.12,12.63,9.12h19.18v36.72c-6.08,1.4-17.07,2.81-28.06,2.81-32.51,0-47.71-13.1-47.71-42.1Z"/>
    <path d="M281.75,201.77c0-39.76,22.45-63.61,62.44-63.61s58.23,22.69,58.23,54.73c0,6.55-1.17,13.8-1.87,17.77h-77.88c.7,12.86,4.68,15.9,20.82,15.9,10.52,0,14.03-2.1,14.03-7.48v-.47h43.5v2.81c0,24.32-22.45,41.63-58.23,41.63-39.06,0-61.04-22.92-61.04-61.27ZM322.67,186.8h37.89c-.23-7.72-4.21-14.03-18.71-14.03-13.56,0-18.48,4.21-19.18,14.03Z"/>
    <path d="M412.72,260.7V104.01h43.73v156.69h-43.73Z"/>
    <path d="M470.95,260.7V104.01h43.73v156.69h-43.73Z"/>
    <path d="M524.98,200.6c0-39.06,22.92-62.44,62.68-62.44s62.68,23.39,62.68,62.44-22.92,62.44-62.68,62.44-62.68-23.62-62.68-62.44ZM606.6,200.6c0-19.18-4.21-24.32-18.94-24.32s-18.94,5.15-18.94,24.32,4.21,24.32,18.94,24.32,18.94-5.15,18.94-24.32Z"/>
    <path d="M663.2,260.7V104.01h74.14c37.42,0,61.51,21.75,61.51,57.77s-24.09,57.53-61.51,57.53h-30.17v41.4h-43.97ZM707.16,143.53v36.48h28.53c14.97,0,19.18-2.81,19.18-18.24s-4.21-18.24-19.18-18.24h-28.53Z"/>
    <path d="M801.18,230.06c0-18.71,12.16-29.94,37.65-34.15l38.36-6.08v-4.21c0-7.48-2.57-10.06-15.44-10.06s-15.9,2.34-15.9,9.59v3.74h-41.86v-2.81c0-29.7,23.39-47.94,59.4-47.94s55.66,16.6,55.66,50.52v72.03h-41.16v-14.5h-2.1c-5.15,7.48-15.67,16.84-38.12,16.84-20.58,0-36.48-10.99-36.48-32.98ZM852.17,231.23c17.07,0,24.32-4.44,25.02-15.67l-29.23,4.91c-4.68.7-6.55,2.34-6.55,5.61,0,4.21,2.57,5.15,10.76,5.15Z"/>
    <path d="M925.14,297.19v-36.48h24.56c7.25,0,9.82-.94,11.93-5.38l-47.94-114.83h48.88l15.9,49.35,5.38,23.15h3.04l4.91-23.15,13.33-49.35h48.41l-47.24,123.25c-10.52,27.6-29.94,36.72-53.32,36.72-10.29,0-22.22-1.87-27.83-3.27Z"/>
  </g>
  <g>
    <path d="M121.27,128.54l-26.79,26.72c25.13,14.65,54.27,41.22,32.79,69.59-23.98,31.67-73.67,6.82-64.38-31.03l-39.8-8.76c-8.02,36.56,12.11,75.57,47.12,89.13,1.23.48,2.47.91,3.7,1.33v24.93h20.48v-20.88c2.84.18,5.65.18,8.43.05v20.83h20.48v-24.74c29.48-10.06,51.54-38.13,52.54-73.54,1.03-36.55-22.93-55.85-54.56-73.64Z"/>
    <path d="M75.93,198.02l26.79-26.72c-25.13-14.65-54.27-41.22-32.79-69.59,23.98-31.67,73.67-6.82,64.38,31.03l39.8,8.76c8.02-36.56-12.11-75.57-47.12-89.13-1.23-.48-2.47-.91-3.7-1.33v-24.09h-20.48v20.04c-2.84-.18-5.65-.18-8.43-.05v-19.99h-20.48v23.9c-29.48,10.06-51.54,38.13-52.54,73.54-1.03,36.55,22.93,55.85,54.56,73.64Z"/>
  </g>
</svg>