<?xml version="1.0" encoding="UTF-8"?>
<svg id="Layer_1" data-name="Layer 1" xmlns="http://www.w3.org/2000/svg" xmlns:xlink="http://www.w3.org/1999/xlink" viewBox="0 0 747.68 725.11">
  <defs>
    <style>
      .cls-1 {
        fill: url(#linear-gradient-2);
      }

      .cls-2 {
        fill: url(#linear-gradient);
      }
    </style>
    <linearGradient id="linear-gradient" x1="177.59" y1="491.58" x2="570.08" y2="491.58" gradientUnits="userSpaceOnUse">
      <stop offset="0" stop-color="#7956da"/>
      <stop offset=".66" stop-color="#2e2077"/>
      <stop offset=".99" stop-color="#0c084a"/>
    </linearGradient>
    <linearGradient id="linear-gradient-2" x1="177.59" y1="232.47" x2="570.08" y2="232.47" xlink:href="#linear-gradient"/>
  </defs>
  <path class="cls-2" d="M431.41,273.26l-68.03,67.88c63.82,37.2,137.84,104.71,83.27,176.76-60.92,80.44-187.12,17.32-163.53-78.82l-101.08-22.25c-20.37,92.87,30.77,191.94,119.67,226.37,3.13,1.21,6.27,2.32,9.4,3.37v63.33h52.01v-53.03c7.21.45,14.34.47,21.4.12v52.9h52.01v-62.83c74.89-25.54,130.92-96.85,133.44-186.78,2.61-92.84-58.23-141.85-138.59-187.03Z"/>
  <path class="cls-1" d="M316.26,449.72l68.03-67.88c-63.82-37.2-137.84-104.71-83.27-176.76,60.92-80.44,187.12-17.32,163.53,78.82l101.08,22.25c20.37-92.87-30.77-191.94-119.67-226.37-3.13-1.21-6.27-2.32-9.4-3.37V15.21h-52.01v50.89c-7.21-.45-14.34-.47-21.4-.12V15.21h-52.01v60.69c-74.89,25.54-130.92,96.85-133.44,186.78-2.61,92.84,58.23,141.85,138.59,187.03Z"/>
</svg>